<?xml version="1.0" standalone="no"?>
<!DOCTYPE svg PUBLIC "-//W3C//DTD SVG 20010904//EN"
 "http://www.w3.org/TR/2001/REC-SVG-20010904/DTD/svg10.dtd">
<svg version="1.0" xmlns="http://www.w3.org/2000/svg"
 width="512.000000pt" height="512.000000pt" viewBox="0 0 512.000000 512.000000"
 preserveAspectRatio="xMidYMid meet">
<metadata>
Created by potrace 1.14, written by Peter Selinger 2001-2017
</metadata>
<g transform="translate(0.000000,512.000000) scale(0.100000,-0.100000)"
fill="#000000" stroke="none">
<path d="M2395 4889 c-166 -24 -335 -89 -480 -183 -106 -68 -261 -220 -324
-317 l-43 -66 -142 -7 c-168 -8 -234 -17 -351 -51 -171 -50 -330 -143 -466
-272 -491 -467 -492 -1229 -2 -1694 100 -95 177 -148 308 -211 123 -58 265
-96 395 -106 l95 -7 5 -832 c5 -821 5 -832 26 -860 11 -15 36 -36 55 -45 32
-17 104 -18 1089 -18 985 0 1057 1 1089 18 19 9 44 30 55 45 21 28 21 37 24
861 l2 833 98 6 c446 26 864 354 1012 795 173 516 -39 1084 -512 1371 -187
113 -411 169 -693 172 l-70 0 -45 72 c-61 96 -206 240 -313 312 -92 60 -221
121 -317 148 -149 43 -347 57 -495 36z m440 -173 c358 -107 619 -374 717 -734
18 -66 22 -112 25 -312 2 -130 9 -247 14 -262 13 -32 59 -51 94 -38 45 17 48
36 42 294 -5 252 -15 321 -66 456 l-20 53 122 -6 c391 -19 714 -229 882 -572
83 -169 100 -245 100 -450 0 -199 -16 -277 -90 -434 -163 -342 -479 -556 -875
-589 -116 -10 -149 -24 -178 -76 -15 -28 -17 -80 -20 -488 l-3 -458 -214 0
-215 0 0 289 c0 179 -4 300 -11 319 -17 50 -77 62 -121 24 -16 -14 -18 -42
-18 -324 l0 -308 -185 0 -185 0 0 380 c0 367 -1 381 -20 400 -24 24 -67 26
-98 4 l-22 -15 0 -385 0 -384 -185 0 -185 0 0 301 c0 192 -4 307 -11 320 -26
50 -109 41 -128 -13 -7 -19 -11 -140 -11 -319 l0 -289 -215 0 -215 0 0 438 c0
269 -4 451 -10 474 -14 48 -62 96 -103 102 -18 2 -80 9 -138 15 -177 19 -319
69 -465 166 -206 138 -360 351 -426 595 -20 74 -23 107 -22 260 0 204 14 270
89 427 167 353 493 570 889 590 115 6 119 5 112 -13 -22 -52 -48 -159 -61
-244 -18 -113 -21 -481 -4 -511 22 -42 106 -43 125 -1 4 9 11 130 15 267 6
231 8 257 33 338 57 191 135 319 275 457 110 108 215 175 349 226 145 54 207
64 387 60 139 -3 172 -7 250 -30z m745 -4056 l0 -290 -1020 0 -1020 0 0 290 0
290 1020 0 1020 0 0 -290z"/>
</g>
</svg>
