<?xml version="1.0" standalone="no"?>
<!DOCTYPE svg PUBLIC "-//W3C//DTD SVG 20010904//EN"
 "http://www.w3.org/TR/2001/REC-SVG-20010904/DTD/svg10.dtd">
<svg version="1.0" xmlns="http://www.w3.org/2000/svg"
 width="512.000000pt" height="512.000000pt" viewBox="0 0 512.000000 512.000000"
 preserveAspectRatio="xMidYMid meet">
<metadata>
Created by potrace 1.14, written by Peter Selinger 2001-2017
</metadata>
<g transform="translate(0.000000,512.000000) scale(0.100000,-0.100000)"
fill="#000000" stroke="none">
<path d="M2320 5103 c-399 -37 -817 -182 -1155 -401 -215 -138 -498 -400 -644
-595 -348 -467 -521 -981 -521 -1552 0 -772 332 -1479 930 -1976 636 -530
1520 -712 2335 -482 568 160 1079 536 1420 1043 199 297 344 675 402 1050 25
161 25 566 0 730 -41 268 -123 528 -238 760 -138 276 -274 466 -488 681 -393
392 -878 638 -1431 724 -102 16 -506 28 -610 18z m575 -783 c726 -144 1269
-683 1422 -1409 24 -112 27 -149 27 -336 1 -226 -6 -285 -55 -473 -110 -420
-382 -796 -749 -1034 -185 -120 -405 -211 -630 -260 -92 -19 -134 -22 -340
-23 -207 0 -249 3 -349 23 -709 144 -1249 675 -1408 1387 -34 151 -43 457 -19
621 44 302 152 564 334 814 77 105 289 313 402 392 231 163 508 273 790 314
143 20 435 12 575 -16z"/>
<path d="M2373 4115 c-150 -68 -281 -198 -398 -395 -50 -86 -145 -293 -145
-319 0 -8 91 -11 320 -11 l320 0 0 375 0 375 -22 -1 c-13 0 -46 -11 -75 -24z"/>
<path d="M2660 3765 l0 -375 320 0 c176 0 320 1 320 3 0 1 -13 37 -29 79 -121
314 -334 574 -533 650 -85 32 -78 64 -78 -357z"/>
<path d="M1800 3964 c-237 -132 -444 -326 -583 -546 l-17 -28 208 0 208 0 38
103 c51 138 124 285 191 387 40 60 54 89 47 99 -14 24 -24 22 -92 -15z"/>
<path d="M3231 3986 c-9 -11 0 -31 44 -97 70 -104 154 -275 197 -401 l33 -98
208 0 c114 0 207 3 207 6 0 14 -106 156 -165 222 -127 142 -272 258 -428 343
-79 44 -80 44 -96 25z"/>
<path d="M1057 3083 c-36 -110 -70 -262 -81 -365 l-6 -58 264 0 264 0 7 83 c9
122 33 307 49 381 l14 66 -238 0 -238 0 -35 -107z"/>
<path d="M1742 3073 c-28 -152 -42 -271 -42 -350 l0 -63 383 2 382 3 3 263 2
262 -353 0 -353 0 -22 -117z"/>
<path d="M2660 2925 l0 -265 385 0 385 0 0 29 c0 84 -45 416 -66 484 -5 16
-31 17 -355 17 l-349 0 0 -265z"/>
<path d="M3560 3188 c0 -2 9 -48 19 -103 18 -91 38 -262 44 -375 l2 -45 264
-3 264 -2 -6 75 c-9 99 -39 234 -79 353 l-33 97 -238 3 c-130 1 -237 1 -237 0z"/>
<path d="M975 2418 c17 -141 39 -243 77 -355 l40 -123 235 0 236 0 -7 38 c-21
120 -45 301 -51 390 l-7 102 -265 0 -265 0 7 -52z"/>
<path d="M1700 2407 c0 -78 24 -273 47 -384 l17 -83 353 0 353 0 -2 263 -3
262 -382 3 -383 2 0 -63z"/>
<path d="M2660 2205 l0 -265 349 0 c324 0 350 1 355 18 21 74 51 276 62 425
l7 87 -387 0 -386 0 0 -265z"/>
<path d="M3627 2463 c-4 -3 -7 -34 -7 -68 0 -86 -37 -371 -56 -438 -5 -16 9
-17 232 -15 l237 3 30 80 c37 103 75 269 83 368 l7 77 -260 0 c-143 0 -263 -3
-266 -7z"/>
<path d="M1215 1713 c138 -217 361 -426 587 -551 106 -59 121 -35 48 75 -64
96 -157 288 -200 411 l-33 92 -210 0 -209 0 17 -27z"/>
<path d="M1830 1729 c0 -18 51 -140 98 -234 92 -184 223 -344 353 -431 68 -45
166 -87 181 -78 5 3 8 174 8 380 l0 374 -320 0 c-222 0 -320 -3 -320 -11z"/>
<path d="M2660 1359 l0 -380 23 6 c12 4 49 19 82 34 163 76 317 245 434 478
36 73 101 225 101 238 0 3 -144 5 -320 5 l-320 0 0 -381z"/>
<path d="M3503 1723 c-68 -196 -160 -387 -240 -502 -40 -58 -43 -65 -29 -80
14 -14 20 -13 63 8 145 70 353 234 469 372 75 88 154 196 154 211 0 4 -92 8
-205 8 -187 0 -206 -2 -212 -17z"/>
</g>
</svg>
